<svg width="720" height="252" viewBox="0 0 720 252" fill="none" xmlns="http://www.w3.org/2000/svg">
<path d="M720.004 0V114.655C710.301 114.655 702.448 122.515 702.448 132.201C702.448 141.887 706.448 159 706.448 170.76C706.448 182.52 696.279 193.305 684.891 193.305C673.504 193.305 665.504 180.747 665.504 169.987C665.504 159.227 667.324 147.751 667.324 140.479C667.324 133.207 661.426 127.312 654.149 127.312C646.872 127.312 640.004 135.495 640.004 142.767C640.004 150.039 644.974 187.889 643.504 204C642.034 220.111 633.546 230.323 619.025 230.323C604.504 230.323 592.504 220.5 592.504 204C592.504 187.5 599.504 139.697 599.504 130C599.504 120.303 589.213 110.609 579.521 110.609C569.818 110.609 561.965 118.469 561.965 128.155C561.965 137.841 563.965 170.318 563.965 177.409C563.965 184.5 559.358 191.187 553.181 191.187C547.004 191.187 542.004 184 542.398 177.409C542.792 170.818 543.398 168.03 543.398 163.182C543.398 158.334 539.355 153 534.504 153C529.653 153 525.504 157.152 525.504 162C525.504 166.848 529.004 199.803 529.004 209.5C529.004 219.197 518.681 228 508.989 228C499.287 228 490.489 217.686 490.489 208C490.489 198.314 491.489 180.5 491.489 180.5C491.489 173.228 485.819 167.987 478.542 167.987C471.266 167.987 464.367 175.882 464.367 183.154C464.367 190.426 465.989 208.379 465.989 220.5C465.989 232.621 457.489 245.477 443.419 245.477C431.302 245.477 419.489 233.61 419.489 221.5C419.489 209.39 422.989 150.233 422.989 143.5C422.989 136.767 417.539 131.989 412.687 131.989C407.836 131.989 402.489 136.267 402.489 143.5C402.489 150.733 407.489 174.235 407.489 186.5C407.489 198.765 399.489 206.402 390.729 206.402C380.989 206.402 373 199 373 186.5C373 174 380 140.995 380 131.298C380 121.601 369.689 111.752 359.997 111.752C350.294 111.752 340.441 121.612 340.441 131.298C340.441 140.984 345.5 161.303 345.5 171C345.5 180.697 336.5 193.5 325 193.5C313.5 193.5 305.5 181.686 305.5 172C305.5 162.314 309.328 152.936 309.328 145.031C309.328 137.126 301.429 129.864 294.152 129.864C286.876 129.864 278.977 135.562 278.977 145.031C278.977 154.5 285.5 193.379 285.5 205.5C285.5 217.621 276 231.875 259.029 231.875C242.058 231.875 232.5 218.61 232.5 206.5C232.5 194.39 239.081 157.674 239.081 147.978C239.081 138.282 229.216 128.433 219.525 128.433C209.833 128.433 199.968 138.292 199.968 147.978C199.968 157.664 204 170.651 204 175.5C204 180.349 199.968 187.749 193.185 187.749C185 187.749 182.5 180.349 182.5 175.5C182.5 170.651 185 151.752 185 146.904C185 142.056 180.469 137.126 175.618 137.126C170.766 137.126 166.5 142.056 166.5 146.904C166.5 151.752 172.5 198.243 172.5 207.94C172.5 217.637 163.5 230.5 151.5 230.5C138.5 230.5 129.5 217.626 129.5 207.94C129.5 198.254 131 189.999 131 182.727C131 175.455 124.777 167.5 117.5 167.5C110.223 167.5 103.5 174.228 103.5 181.5C103.5 188.772 107.5 210.879 107.5 223C107.5 235.121 97.4951 250.713 83.4229 251C69.0883 251.292 57.5 235.11 57.5 223C57.5 210.89 63.4749 147.189 63.4749 142.34C63.4749 137.491 57.5419 131.561 52.6909 131.561C47.8399 131.561 42.3099 134.68 41.9069 142.34C41.5039 150 46.8138 180.614 45.9069 189.807C45 199 38.277 206.402 31 206.402C22.272 206.402 17.1138 202.643 14.5569 189.807C12 176.971 17.5569 141.875 17.5569 132.179C17.5569 122.483 9.69188 114.634 -0.00012207 114.634L0.0109253 0H720.004Z" fill="#F1E8E1"/>
</svg>