<svg width="229" height="308" viewBox="0 0 229 308" fill="none" xmlns="http://www.w3.org/2000/svg">
<ellipse cx="113.981" cy="281.531" rx="89.4323" ry="26.4688" fill="#E4D3C7"/>
<path d="M228.206 113.76C228.206 197.298 114.5 290.755 114.5 290.755C114.5 290.755 0.793945 199.375 0.793945 113.76C0.793945 50.9319 51.7019 0 114.5 0C177.298 0 228.206 50.9319 228.206 113.76Z" fill="#9CC2FF"/>
<circle cx="117.096" cy="119.417" r="82.0345" fill="#AFE2FF"/>
<path d="M55.0784 152.932C55.8737 143.373 64.6226 130.74 64.6226 130.74C64.6226 130.74 72.9737 143.794 74.1668 152.932C75.1082 160.142 69.8937 164.428 64.6226 164.428C59.3514 164.428 54.475 160.183 55.0784 152.932Z" fill="#9CC2FF"/>
<path d="M109.168 119.511C105.96 127.532 99.694 131.542 87.512 131.542C75.3301 131.542 69.8662 128.735 65.0537 120.714" stroke="#362117" stroke-width="4.8125"/>
<path d="M134.434 119.511C137.642 127.532 143.908 131.542 156.09 131.542C168.272 131.542 173.736 128.735 178.548 120.714" stroke="#362117" stroke-width="4.8125"/>
<path d="M106.361 162.422C106.361 151.79 113.58 145.177 124.007 145.177C134.434 145.177 140.45 151.79 140.45 162.422" stroke="#362117" stroke-width="4.8125"/>
</svg>
