<svg width="207" height="80" viewBox="0 0 207 80" fill="none" xmlns="http://www.w3.org/2000/svg">
<g clip-path="url(#clip0_34_423)">
<path fill-rule="evenodd" clip-rule="evenodd" d="M44.1246 34.8894C45.7169 35.8905 48.1283 36.391 51.3589 36.391C52.6101 36.391 53.8614 36.2879 55.1126 36.0818C56.3867 35.8757 57.5583 35.4341 58.6275 34.7569C59.697 34.0503 60.55 32.9756 61.1871 31.533C61.8466 30.0903 62.1766 28.1471 62.1766 25.7033C62.1766 23.9368 61.9491 22.4647 61.4942 21.287C61.0617 20.1093 60.4361 19.1082 59.6173 18.2838C58.7982 17.4594 57.7972 16.7086 56.6142 16.0315C55.8179 15.5604 54.9648 15.0451 54.0549 14.4858C53.1447 13.8969 52.2577 13.1903 51.3932 12.3659L52.0074 11.3501C52.9172 12.1745 53.8046 12.8664 54.6691 13.4258C55.5336 13.9852 56.4664 14.4121 57.4673 14.7065C58.4911 14.9715 59.6512 15.1187 60.9482 15.1482C61.2439 12.5867 61.3688 10.0841 61.3235 7.64033C61.3006 5.16715 61.1185 2.87065 60.7775 0.750787C59.913 0.750787 59.0599 0.780229 58.2183 0.839112C57.3762 0.897998 56.4096 0.956885 55.3176 1.01577C54.2256 1.04521 52.8605 1.07465 51.2225 1.1041C51.4728 2.19347 51.6546 3.22396 51.7685 4.19558C51.882 5.16715 51.7799 6.21239 51.4614 7.33121C51.4157 4.53416 50.6308 2.62039 49.1067 1.5899C47.5823 0.529965 45.3759 0 42.4866 0C39.5746 0 37.2538 0.515244 35.525 1.54574C33.8187 2.54678 32.5902 3.91587 31.8395 5.65298C31.0887 7.36063 30.7134 9.2744 30.7134 11.3942C30.7134 13.1019 30.9864 14.574 31.5323 15.8107C32.0783 17.0472 32.8177 18.0777 33.7505 18.9021C34.706 19.7265 35.7638 20.4037 36.9242 20.9336C37.8341 21.3164 38.7329 21.7875 39.6199 22.3469C40.5301 22.8769 41.3718 23.5393 42.1453 24.3343L41.4629 25.2617C40.6665 24.4373 39.711 23.7454 38.5961 23.186C37.4813 22.5972 36.2985 22.1408 35.0472 21.8169C33.796 21.4931 32.5447 21.3311 31.2935 21.3311C30.9977 23.9221 30.8612 26.3805 30.884 28.7065C30.9295 31.003 31.1228 33.329 31.4641 35.6844C32.7836 35.7138 34.251 35.6696 35.8662 35.5519C37.4813 35.4636 39.5064 35.3752 41.9406 35.2869C41.6903 34.3742 41.5082 33.4467 41.3943 32.5046C41.3036 31.5624 41.4057 30.5467 41.7017 29.4573C41.7471 32.0482 42.5548 33.8589 44.1246 34.8894ZM63.4186 20.0945C63.4186 31.0472 68.6171 36.5235 79.0138 36.5235C84.4055 36.5235 88.4435 35.1249 91.1281 32.3279C93.8127 29.5014 95.155 25.0703 95.155 19.0346C95.155 13.6761 93.8809 9.62772 91.3327 6.88955C88.8077 4.12195 84.758 2.73816 79.1845 2.73816C73.9292 2.73816 69.9819 4.13666 67.343 6.93371C64.7266 9.73077 63.4186 14.1177 63.4186 20.0945ZM80.2083 22.0378H78.3653V17.2239H80.2083V22.0378ZM105.883 35.9935C103.926 35.9935 102.334 35.6549 101.105 34.9777C99.8769 34.3006 99.0009 32.9168 98.4778 30.8264C98.1821 29.5898 98.0343 28.3826 98.0343 27.2049C98.0568 26.0272 98.125 24.8495 98.2389 23.6718C98.3524 22.4941 98.4096 21.3017 98.4096 20.0945C98.4096 18.593 98.2842 17.43 98.0343 16.6056C97.8064 15.7518 97.5451 15.1482 97.2494 14.7949C96.9534 14.4416 96.692 14.2502 96.4645 14.2208C96.2367 13.2491 96.0778 12.1009 95.9867 10.776C95.9185 9.4216 95.9296 8.08199 96.0206 6.75705C96.1346 5.43215 96.3277 4.34278 96.6009 3.48894C97.67 3.6656 98.8759 3.81279 100.218 3.93058C101.56 4.01891 102.937 4.06308 104.347 4.06308C106.031 4.06308 107.578 3.98946 108.988 3.84225C110.421 3.69504 111.559 3.56255 112.401 3.44478V20.4479H113.629V14.3533C113.493 13.3228 113.402 12.1009 113.356 10.6876C113.333 9.2744 113.356 7.90533 113.425 6.58042C113.493 5.25548 113.607 4.21029 113.766 3.44478C114.312 3.50366 114.903 3.59199 115.54 3.70975C116.177 3.82754 116.962 3.93058 117.895 4.01891C118.828 4.07779 119.988 4.10724 121.375 4.10724C123.082 4.10724 124.549 4.03362 125.778 3.88641C127.006 3.73921 127.837 3.60671 128.269 3.48894C128.474 4.31333 128.61 5.10828 128.678 5.87377C128.747 6.60984 128.781 7.34592 128.781 8.08199C128.781 9.46577 128.667 10.8054 128.439 12.1009C128.235 13.3669 128.018 14.633 127.791 15.899C127.586 17.1356 127.484 18.4163 127.484 19.7412C127.484 21.0073 127.586 22.023 127.791 22.7885C128.018 23.554 128.292 24.1281 128.61 24.5109C128.951 24.8642 129.281 25.1292 129.6 25.3059C129.759 25.8947 129.861 26.6602 129.907 27.6024C129.975 28.5151 129.998 29.4867 129.975 30.5172C129.975 31.5477 129.918 32.534 129.805 33.4762C129.691 34.3889 129.543 35.1397 129.361 35.7285C128.451 35.5813 127.472 35.4341 126.426 35.2869C125.38 35.1691 124.254 35.1102 123.048 35.1102C121.433 35.1102 120.102 35.1249 119.055 35.1544C118.008 35.1839 117.144 35.2133 116.462 35.2427C115.779 35.3016 115.165 35.3605 114.619 35.4194C115.074 34.7128 115.449 33.7117 115.745 32.4163C116.041 31.1208 116.143 29.7811 116.052 28.3973C115.825 29.7811 115.301 31.0619 114.482 32.2396C113.686 33.3878 112.571 34.3006 111.138 34.9777C109.728 35.6549 107.976 35.9935 105.883 35.9935ZM131.356 32.3721C131.47 33.6675 131.641 34.7864 131.868 35.7285C132.801 35.5813 133.938 35.4341 135.281 35.2869C136.646 35.1397 138.181 35.0661 139.888 35.0661C141.071 35.0661 142.31 35.0955 143.607 35.1544C144.904 35.2427 146.132 35.3311 147.293 35.4194C148.453 35.5371 149.408 35.6402 150.159 35.7285C150.341 35.1397 150.489 34.3889 150.603 33.4762C150.717 32.534 150.785 31.5477 150.807 30.5172C150.83 29.4573 150.807 28.4562 150.739 27.5141C150.694 26.5719 150.591 25.7917 150.432 25.1734C149.454 24.4079 148.714 23.4804 148.214 22.391C147.736 21.3017 147.509 19.9326 147.531 18.2838H148.521C148.498 20.227 148.976 21.7286 149.954 22.7885C150.956 23.819 152.286 24.3343 153.947 24.3343C156.586 24.3343 158.679 23.3479 160.226 21.3753C161.796 19.4027 162.581 16.6792 162.581 13.205C162.581 9.61298 161.898 6.97788 160.533 5.29965C159.168 3.62143 157.325 2.78232 155.005 2.78232C153.208 2.78232 151.649 3.1798 150.33 3.97475C149.033 4.74024 147.975 5.74131 147.156 6.97788C146.337 8.21449 145.734 9.53939 145.347 10.9526C145.279 10.5993 145.291 10.0988 145.382 9.45106C145.473 8.77386 145.609 8.06724 145.791 7.33121C145.996 6.59513 146.223 5.91794 146.474 5.29965C146.724 4.65191 146.963 4.16612 147.19 3.84225C146.303 3.90112 145.177 3.96004 143.812 4.01891C142.447 4.04833 141.059 4.06308 139.649 4.06308C138.238 4.06308 136.862 4.01891 135.52 3.93058C134.177 3.81279 132.971 3.6656 131.902 3.48894C131.629 4.34278 131.436 5.43215 131.322 6.75705C131.231 8.08199 131.22 9.4216 131.288 10.776C131.379 12.1009 131.538 13.2491 131.766 14.2208C131.993 14.2502 132.255 14.4416 132.551 14.7949C132.846 15.1482 133.108 15.7518 133.336 16.6056C133.586 17.43 133.711 18.593 133.711 20.0945C133.711 21.8611 133.495 23.1271 133.062 23.8926C132.63 24.6287 132.153 25.0851 131.629 25.2617C131.447 26.1155 131.333 27.1902 131.288 28.4857C131.242 29.7811 131.265 31.0766 131.356 32.3721ZM47.3582 74.7886C43.4905 74.7886 40.351 74.0822 37.9395 72.6688C35.5508 71.2262 33.799 69.224 32.6843 66.6625C31.5923 64.0715 31.0463 61.0536 31.0463 57.6089C31.0463 54.1936 31.5695 51.2642 32.616 48.8203C33.6853 46.3473 35.1754 44.4483 37.0864 43.1233C38.9972 41.7688 41.2269 41.0916 43.7747 41.0916C46.2547 41.0916 48.177 41.607 49.5421 42.6374C50.9298 43.6387 51.6579 45.5377 51.7261 48.3347C51.9764 47.304 52.0671 46.2736 51.9989 45.2431C51.9535 44.1832 51.8853 43.1528 51.7943 42.1515C52.5449 42.1515 53.398 42.1371 54.3535 42.1077C55.332 42.0782 56.3329 42.0487 57.3567 42.0192C58.3805 41.9602 59.3471 41.9163 60.2573 41.8868C61.1672 41.8573 61.9406 41.8426 62.5777 41.8426C62.7141 42.6374 62.8166 43.6531 62.8848 44.89C62.9758 46.097 63.0326 47.4219 63.0555 48.8645C63.0783 50.278 63.0555 51.6763 62.9873 53.0603C62.9191 54.4439 62.8166 55.6804 62.6802 56.7698C62.0203 56.8877 61.1786 56.9906 60.1548 57.0791C59.1311 57.1381 58.0276 57.1819 56.8446 57.2114C55.6619 57.2409 54.4789 57.2409 53.2959 57.2114C52.1128 57.1819 51.0208 57.1381 50.0199 57.0791C49.0415 56.9906 48.2566 56.8877 47.6653 56.7698L47.631 55.1359H45.993V60.303H47.631V58.4922C52.4995 58.198 57.5841 58.198 62.8848 58.4922C62.7937 62.1725 62.2138 65.2199 61.1443 67.6343C60.0981 70.0487 58.4601 71.8444 56.2304 73.0223C54.0011 74.1998 51.0437 74.7886 47.3582 74.7886ZM64.3816 58.3598C64.3816 69.3124 69.5801 74.7886 79.9768 74.7886C85.3685 74.7886 89.4064 73.3902 92.0911 70.5932C94.7757 67.7666 96.1176 63.3357 96.1176 57.2999C96.1176 51.9414 94.8439 47.8931 92.2957 45.1547C89.7707 42.3871 85.7209 41.0035 80.1475 41.0035C74.8922 41.0035 70.9449 42.4018 68.306 45.1989C65.6896 47.9959 64.3816 52.383 64.3816 58.3598ZM81.1709 60.303H79.3283V55.489H81.1709V60.303ZM113.112 74.7886C102.715 74.7886 97.5167 69.3124 97.5167 58.3598C97.5167 52.383 98.8251 47.9959 101.441 45.1989C104.08 42.4018 108.027 41.0035 113.283 41.0035C118.856 41.0035 122.906 42.3871 125.431 45.1547C127.979 47.8931 129.253 51.9414 129.253 57.2999C129.253 63.3357 127.911 67.7666 125.226 70.5932C122.542 73.3902 118.504 74.7886 113.112 74.7886ZM112.463 60.303H114.306V55.489H112.463V60.303ZM143.664 79.4702C144.961 79.5878 146.394 79.7644 147.964 80C148.237 78.8811 148.351 77.2029 148.305 74.9655C147.327 74.4649 146.451 73.8319 145.677 73.0662C144.904 72.3008 144.187 71.447 143.528 70.5047L144.278 69.6217C144.938 70.5932 145.666 71.4618 146.462 72.2271C147.259 72.9928 148.191 73.5963 149.261 74.038C150.33 74.5091 151.604 74.7447 153.083 74.7447C156.518 74.7447 159.089 73.2579 160.795 70.2839C162.501 67.2807 163.354 63.1148 163.354 57.7858C163.354 54.341 162.899 51.3674 161.989 48.8645C161.102 46.362 159.782 44.4335 158.031 43.0791C156.279 41.7246 154.14 41.0477 151.615 41.0477C149.659 41.0477 148.032 41.4304 146.735 42.1958C145.439 42.932 144.415 43.8739 143.664 45.0223C142.936 46.1412 142.424 47.2748 142.129 48.4229C142.038 47.8636 142.06 47.1716 142.197 46.3473C142.333 45.523 142.538 44.7134 142.811 43.9182C143.107 43.1233 143.402 42.5198 143.698 42.1077C142.811 42.1663 141.685 42.2253 140.32 42.2842C138.955 42.3137 137.567 42.3285 136.157 42.3285C136.02 42.3285 135.656 42.3137 135.065 42.2842C134.473 42.2253 133.791 42.1515 133.017 42.0634C132.267 41.9749 131.527 41.8721 130.799 41.7541C130.526 42.6079 130.333 43.6973 130.219 45.0223C130.128 46.3473 130.117 47.687 130.185 49.0411C130.276 50.3661 130.435 51.5145 130.662 52.4859C130.822 52.5154 131.004 52.6481 131.208 52.8833C131.436 53.1189 131.652 53.5606 131.857 54.2083C132.084 54.856 132.267 55.7836 132.403 56.9906C132.539 58.198 132.608 59.7729 132.608 61.7161C132.608 63.5712 132.483 65.0138 132.232 66.0442C132.005 67.0747 131.721 67.8109 131.379 68.2525C131.061 68.6942 130.765 69.0031 130.492 69.1801C130.264 70.1515 130.117 71.3147 130.048 72.6688C129.98 73.9937 129.98 75.3187 130.048 76.6437C130.139 77.9687 130.31 79.0581 130.56 79.9119C131.356 79.7939 132.278 79.6911 133.324 79.6026C134.371 79.5141 135.463 79.4407 136.6 79.3818C137.738 79.3523 138.83 79.3375 139.876 79.3375C141.127 79.3375 142.39 79.3818 143.664 79.4702ZM148.407 59.9056H146.565V55.7983H148.407V59.9056ZM184.785 74.6562C181.873 74.6562 179.644 74.1851 178.097 73.2431C176.573 72.3008 175.788 70.6374 175.742 68.2525C175.469 69.2535 175.378 70.1958 175.469 71.0791C175.583 71.9329 175.753 72.7867 175.981 73.6406C173.729 73.7287 171.681 73.8171 169.839 73.9056C167.996 73.9937 166.472 74.0232 165.266 73.9937C164.97 71.8149 164.799 69.6509 164.754 67.5016C164.731 65.3523 164.856 63.0853 165.129 60.7005C166.79 60.7005 168.383 60.9655 169.907 61.4953C171.454 61.9959 172.819 62.8055 174.002 63.9244L174.65 62.9088C173.99 62.2905 173.297 61.7899 172.568 61.4072C171.863 60.995 171.113 60.6267 170.316 60.303C169.247 59.8319 168.269 59.2136 167.381 58.4483C166.517 57.6826 165.834 56.7112 165.334 55.5333C164.834 54.3558 164.583 52.9128 164.583 51.2052C164.583 49.3799 164.902 47.7018 165.539 46.1707C166.199 44.6396 167.234 43.4179 168.644 42.5051C170.055 41.5628 171.875 41.0916 174.104 41.0916C176.994 41.0916 179.211 41.5923 180.758 42.5932C182.328 43.565 183.136 45.3169 183.182 47.8488C183.477 46.8184 183.579 45.8614 183.489 44.9781C183.42 44.0656 183.25 43.1086 182.977 42.1077C184.592 42.0782 185.98 42.0487 187.14 42.0192C188.323 41.9602 189.392 41.9163 190.348 41.8868C191.303 41.8278 192.225 41.7983 193.112 41.7983C193.43 43.7416 193.601 45.8466 193.624 48.1139C193.646 50.3808 193.533 52.692 193.282 55.0474C191.622 55.0182 190.223 54.7974 189.085 54.3849C187.948 53.9727 186.844 53.3397 185.775 52.4859L185.195 53.5458C185.764 54.017 186.287 54.3996 186.765 54.6942C187.242 54.9593 187.674 55.1948 188.061 55.4009C189.449 56.1368 190.587 56.932 191.474 57.7858C192.361 58.6101 193.021 59.6258 193.453 60.8328C193.885 62.0107 194.101 63.4828 194.101 65.2494C194.101 67.3987 193.806 69.1064 193.214 70.3724C192.623 71.6383 191.849 72.5807 190.894 73.1989C189.961 73.7877 188.949 74.1703 187.857 74.3473C186.787 74.5534 185.763 74.6562 184.785 74.6562ZM13.5135 73.2431C15.0605 74.1851 17.29 74.6562 20.202 74.6562C21.1802 74.6562 22.204 74.5534 23.2733 74.3473C24.3652 74.1703 25.3776 73.7877 26.3103 73.1989C27.2658 72.5807 28.0394 71.6383 28.6309 70.3724C29.2224 69.1064 29.5181 67.3987 29.5181 65.2494C29.5181 63.4828 29.302 62.0107 28.8697 60.8328C28.4375 59.6258 27.7777 58.6101 26.8905 57.7858C26.0032 56.932 24.8657 56.1368 23.478 55.4009C23.0912 55.1948 22.659 54.9593 22.1812 54.6942C21.7035 54.3996 21.1802 54.017 20.6115 53.5458L21.1916 52.4859C22.2609 53.3397 23.3642 53.9727 24.5017 54.3849C25.6392 54.7974 27.0383 55.0182 28.6991 55.0474C28.9493 52.692 29.0631 50.3808 29.0404 48.1139C29.0176 45.8466 28.847 43.7416 28.5285 41.7983C27.6413 41.7983 26.7199 41.8278 25.7644 41.8868C24.8089 41.9163 23.7396 41.9602 22.5566 42.0192C21.3963 42.0487 20.0086 42.0782 18.3934 42.1077C18.6664 43.1086 18.837 44.0656 18.9053 44.9781C18.9962 45.8614 18.8939 46.8184 18.5981 47.8488C18.5526 45.3169 17.745 43.565 16.1752 42.5932C14.6282 41.5923 12.4101 41.0916 9.52088 41.0916C7.29139 41.0916 5.47137 41.5628 4.06087 42.5051C2.65038 43.4179 1.61526 44.6396 0.955513 46.1707C0.318513 47.7018 0 49.3799 0 51.2052C0 52.9128 0.25025 54.3558 0.75075 55.5333C1.25125 56.7112 1.93376 57.6826 2.79826 58.4483C3.6855 59.2136 4.66374 59.8319 5.73301 60.303C6.52925 60.6267 7.28 60.995 7.98525 61.4072C8.71325 61.7899 9.40711 62.2905 10.0669 62.9088L9.41851 63.9244C8.2355 62.8055 6.87049 61.9959 5.3235 61.4953C3.79926 60.9655 2.20676 60.7005 0.546009 60.7005C0.273009 63.0853 0.14789 65.3523 0.17064 67.5016C0.21614 69.6509 0.386754 71.8149 0.682503 73.9937C1.88825 74.0232 3.41251 73.9937 5.25526 73.9056C7.09799 73.8171 9.14551 73.7287 11.3978 73.6406C11.1702 72.7867 10.9996 71.9329 10.8859 71.0791C10.7949 70.1958 10.8859 69.2535 11.1589 68.2525C11.2044 70.6374 11.9892 72.3008 13.5135 73.2431ZM198.469 42.5593V46.7097H199.359V42.5593H200.784V41.8433H197.051V42.5593H198.469ZM201.443 41.8433V46.7097H202.333V43.3519L203.688 46.0144H204.39L205.746 43.3519V46.7097H206.636V41.8433H205.579L204.05 44.9301L202.5 41.8433H201.443Z" fill="#362117"/>
</g>
<defs>
<clipPath id="clip0_34_423">
<rect width="206.82" height="80" fill="white"/>
</clipPath>
</defs>
</svg>
